<?xml version="1.0" standalone="no"?>
<!DOCTYPE svg PUBLIC "-//W3C//DTD SVG 20010904//EN"
 "http://www.w3.org/TR/2001/REC-SVG-20010904/DTD/svg10.dtd">
<svg version="1.0" xmlns="http://www.w3.org/2000/svg"
 width="700.000000pt" height="700.000000pt" viewBox="0 0 700.000000 700.000000"
 preserveAspectRatio="xMidYMid meet">
<metadata>
Created by potrace 1.14, written by Peter Selinger 2001-2017
</metadata>
<g transform="translate(0.000000,700.000000) scale(0.100000,-0.100000)"
fill="#000000" stroke="none">
<path d="M1987 6113 c-127 -29 -237 -108 -296 -214 -64 -115 -61 -44 -61
-1281 0 -1161 0 -1153 35 -1119 9 8 635 371 830 481 l30 17 3 447 2 448 58
-33 c31 -17 71 -40 87 -50 17 -10 57 -33 90 -52 33 -18 233 -134 445 -257 212
-123 395 -228 407 -234 13 -6 23 -14 23 -17 0 -3 -21 -18 -47 -33 -27 -14 -55
-31 -63 -36 -8 -5 -53 -32 -100 -58 -47 -27 -305 -177 -575 -332 -269 -156
-505 -291 -522 -302 -50 -27 -81 -45 -303 -174 -113 -65 -213 -125 -224 -134
-55 -45 -101 -103 -134 -170 l-37 -75 -3 -1030 -2 -1031 450 0 450 0 2 844 3
844 405 234 c223 129 414 239 425 246 11 6 88 51 170 98 83 48 269 156 415
240 146 84 339 196 430 248 450 259 453 261 507 321 162 181 144 477 -39 636
-37 32 -502 307 -792 468 -28 16 -72 42 -97 58 -25 16 -48 29 -51 29 -3 0 -46
25 -96 55 -50 30 -96 55 -102 55 -5 0 -10 5 -10 10 0 6 -4 10 -9 10 -4 0 -48
23 -97 51 -49 29 -105 61 -124 71 -108 61 -441 254 -472 274 -21 13 -40 24
-43 24 -3 0 -38 20 -78 44 -73 43 -368 214 -442 256 -22 12 -69 39 -105 60
-122 70 -228 90 -343 63z"/>
<path d="M3890 2949 c-113 -65 -212 -123 -220 -128 -8 -5 -88 -51 -177 -103
-156 -89 -178 -108 -154 -133 5 -6 84 -140 176 -300 92 -159 233 -405 315
-545 81 -140 226 -392 323 -560 l176 -305 513 1 c282 1 516 2 521 3 4 0 -3 18
-16 39 -13 20 -41 69 -62 107 -21 39 -53 94 -72 123 -18 29 -33 54 -33 57 0 2
-38 68 -83 147 -46 79 -173 298 -282 488 -108 190 -206 357 -216 372 -11 15
-19 30 -19 32 0 3 -44 81 -98 173 -104 177 -162 278 -175 303 -4 8 -20 36 -35
61 -15 26 -58 101 -97 168 -38 66 -72 120 -75 120 -3 0 -97 -54 -210 -120z"/>
</g>
</svg>
