<svg xmlns="http://www.w3.org/2000/svg" version="1.1" xmlns:xlink="http://www.w3.org/1999/xlink" width="512" height="512"><svg id="SvgjsSvg1053" version="1.1" viewBox="0 0 512 512" height="512" width="512" sodipodi:docname="res-logo.svg" inkscape:version="1.4.1 (93de688d07, 2025-03-30)" xmlns:inkscape="http://www.inkscape.org/namespaces/inkscape" xmlns:sodipodi="http://sodipodi.sourceforge.net/DTD/sodipodi-0.dtd" xmlns="http://www.w3.org/2000/svg" xmlns:svg="http://www.w3.org/2000/svg" xmlns:rdf="http://www.w3.org/1999/02/22-rdf-syntax-ns#" xmlns:cc="http://creativecommons.org/ns#" xmlns:dc="http://purl.org/dc/elements/1.1/">
  <sodipodi:namedview id="SvgjsSodipodi:namedview1052" pagecolor="#ffffff" bordercolor="#666666" borderopacity="1.0" inkscape:showpageshadow="2" inkscape:pageopacity="0.0" inkscape:pagecheckerboard="0" inkscape:deskcolor="#d1d1d1" inkscape:zoom="0.014142136" inkscape:cx="-12763.277" inkscape:cy="19692.924" inkscape:window-width="1920" inkscape:window-height="1052" inkscape:window-x="0" inkscape:window-y="0" inkscape:window-maximized="1" inkscape:current-layer="svg55995"></sodipodi:namedview>
  <defs id="SvgjsDefs1051">
    <filter height="2.0763559" width="4.2459979" y="-0.55938005" x="-1.3903795" id="SvgjsFilter1050" style="color-interpolation-filters:sRGB">
      <feFlood id="SvgjsFeFlood1049" result="flood" flood-color="rgb(0,0,0)" flood-opacity="0.2"></feFlood>
      <feComposite id="SvgjsFeComposite1048" result="composite1" operator="in" in2="SourceGraphic" in="flood"></feComposite>
      <feGaussianBlur id="SvgjsFeGaussianBlur1047" result="blur" stdDeviation="10" in="composite1"></feGaussianBlur>
      <feOffset id="SvgjsFeOffset1046" result="offset" dy="0" dx="0"></feOffset>
      <feComposite id="SvgjsFeComposite1045" result="composite2" operator="over" in2="offset" in="SourceGraphic"></feComposite>
    </filter>
    <filter height="2.0763559" width="4.2459979" y="-0.55938005" x="-1.3903795" id="SvgjsFilter1044" style="color-interpolation-filters:sRGB">
      <feFlood id="SvgjsFeFlood1043" result="flood" flood-color="rgb(0,0,0)" flood-opacity="0.2"></feFlood>
      <feComposite id="SvgjsFeComposite1042" result="composite1" operator="in" in2="SourceGraphic" in="flood"></feComposite>
      <feGaussianBlur id="SvgjsFeGaussianBlur1041" result="blur" stdDeviation="10" in="composite1"></feGaussianBlur>
      <feOffset id="SvgjsFeOffset1040" result="offset" dy="0" dx="0"></feOffset>
      <feComposite id="SvgjsFeComposite1039" result="composite2" operator="over" in2="offset" in="SourceGraphic"></feComposite>
    </filter>
    <clipPath id="SvgjsClipPath1038" clipPathUnits="userSpaceOnUse">
      <circle r="245.54417" cy="-157.25929" cx="-885.92554" id="SvgjsCircle1037" style="fill:#000000;stroke-width:0.264584;stroke-linecap:round;stroke-linejoin:round;stop-color:#000000"></circle>
    </clipPath>
  </defs>
  <metadata id="SvgjsMetadata1036">
    <rdf:rdf>
      <cc:work rdf:about="">
        <dc:format>image/svg+xml</dc:format>
        <dc:type rdf:resource="http://purl.org/dc/dcmitype/StillImage"></dc:type>
      </cc:work>
    </rdf:rdf>
  </metadata>
  <circle style="fill:#c52f21;fill-opacity:0.980392;stroke-linecap:square" id="SvgjsCircle1035" cx="256" cy="256" r="256"></circle>
  <g clip-path="url(#clipPath56636)" style="stroke-width:1.16223" transform="matrix(0.86041458,0,0,0.86041458,973.53302,346.57798)" id="SvgjsG1034"></g>
  <g id="SvgjsG1033" transform="matrix(1.4261046,0,0,1.4261046,-44.839294,-45.292819)" style="fill:#ffffff;fill-opacity:0.980392;stroke:none;stroke-width:0;stroke-dasharray:none">
    <path d="m 242.04356,229.38407 -32.9953,19.05 42.509,73.62703 h 43.9937 z" style="display:inline;fill:#ffffff;fill-opacity:0.980392;stroke:none;stroke-width:0;stroke-linecap:round;stroke-linejoin:round;stroke-dasharray:none;stop-color:#000000" id="SvgjsPath1032"></path>
    <path d="m 156.68396,100.47875 a 19.049999,19.049999 0 0 0 -0.1886,5.3e-4 19.049999,19.049999 0 0 0 -16.3711,9.525 19.049999,19.049999 0 0 0 -2.5523,9.525 v 92.57056 l 38.1,-21.99708 v -37.57809 l 32.5437,18.78904 14.5521,8.40156 -47.0958,27.19109 v -5e-4 l -28.575,16.4977 v 5e-4 a 19.050001,19.050001 0 0 0 -9.525,16.49772 v 32.9954 49.16392 h 38.1 v -71.16104 l 94.7131,-54.68244 a 19.05,19.05 0 0 0 0.083,-0.0481 19.05,19.05 0 0 0 6.953,-7.03469 19.05,19.05 0 0 0 -0.063,-18.94047 19.05,19.05 0 0 0 -6.9727,-6.97269 v -0.007 l -104.2417,-60.18393 a 19.049999,19.049999 0 0 0 -0.083,-0.0475 19.049999,19.049999 0 0 0 -9.3803,-2.50476 z" style="display:inline;fill:#ffffff;fill-opacity:0.980392;stroke:none;stroke-width:0;stroke-linecap:round;stroke-linejoin:round;stroke-dasharray:none;stop-color:#000000" id="SvgjsPath1031"></path>
  </g>
</svg><style>@media (prefers-color-scheme: light) { :root { filter: none; } }
@media (prefers-color-scheme: dark) { :root { filter: none; } }
</style></svg>